<?xml version="1.0" standalone="no"?>
<!DOCTYPE svg PUBLIC "-//W3C//DTD SVG 20010904//EN"
 "http://www.w3.org/TR/2001/REC-SVG-20010904/DTD/svg10.dtd">
<svg version="1.0" xmlns="http://www.w3.org/2000/svg"
 width="300.000000pt" height="140.000000pt" viewBox="0 0 300.000000 140.000000"
 preserveAspectRatio="xMidYMid meet">
<metadata>
Created by potrace 1.10, written by Peter Selinger 2001-2011
</metadata>
<g transform="translate(0.000000,140.000000) scale(0.100000,-0.100000)"
fill="#000000" stroke="none">
<path d="M810 1065 c-17 -20 -11 -672 7 -687 30 -25 33 6 33 341 0 274 -3 341
-14 350 -10 9 -16 8 -26 -4z"/>
<path d="M2374 1065 c-11 -29 7 -35 102 -35 l96 0 -9 -252 c-12 -387 -12 -403
12 -403 19 0 20 9 28 245 4 135 10 282 13 328 l6 82 118 0 c120 0 143 7 120
35 -18 22 -478 22 -486 0z"/>
<path d="M194 1056 c-12 -30 7 -36 115 -36 l108 0 7 -312 c4 -177 11 -317 16
-322 27 -27 31 18 28 322 l-3 311 130 3 c122 3 130 4 130 23 0 19 -8 20 -263
23 -223 2 -263 0 -268 -12z"/>
<path d="M1727 1064 c-9 -9 -9 -388 0 -556 5 -115 8 -128 25 -128 17 0 18 11
18 147 0 120 3 150 16 164 15 17 21 11 97 -94 139 -194 157 -217 171 -217 36
0 16 39 -99 195 l-123 167 124 140 c69 77 123 145 121 151 -11 34 -43 8 -171
-139 -75 -86 -134 -159 -132 -161 2 -3 13 0 24 6 16 8 21 7 26 -4 3 -10 -1
-15 -13 -15 -10 0 -24 -7 -31 -15 -31 -38 -47 -5 -21 44 19 35 6 311 -15 318
-5 2 -13 0 -17 -3z"/>
<path d="M2207 1063 c-12 -12 -8 -701 4 -709 27 -17 31 23 30 357 0 189 -1
347 -1 352 0 9 -24 9 -33 0z"/>
<path d="M1213 1046 c-241 -79 -307 -385 -121 -562 73 -70 119 -89 223 -89
105 0 157 20 226 87 42 41 42 41 19 50 -19 7 -29 3 -54 -21 -78 -75 -215 -95
-314 -45 -129 64 -190 216 -146 364 22 74 100 152 174 174 111 33 195 11 281
-73 32 -31 59 -61 58 -66 0 -9 -239 -196 -258 -203 -5 -2 -34 27 -66 63 -57
65 -81 78 -91 50 -7 -17 134 -177 153 -173 23 5 312 233 312 246 2 43 -103
151 -178 185 -57 25 -162 32 -218 13z"/>
</g>
</svg>
