<?xml version="1.0" standalone="no"?>
<!DOCTYPE svg PUBLIC "-//W3C//DTD SVG 20010904//EN"
 "http://www.w3.org/TR/2001/REC-SVG-20010904/DTD/svg10.dtd">
<svg version="1.0" xmlns="http://www.w3.org/2000/svg"
 width="1640.000000pt" height="2360.000000pt" viewBox="0 0 1640.000000 2360.000000"
 preserveAspectRatio="xMidYMid meet">

<g transform="translate(0.000000,2360.000000) scale(0.100000,-0.100000)"
fill="#000000" stroke="none">
<path d="M5935 14341 c-159 -57 -239 -142 -279 -298 -14 -54 -16 -283 -16
-2164 0 -2289 -3 -2166 56 -2274 38 -71 110 -142 176 -176 122 -62 16 -59
1941 -59 l1757 0 0 2308 c0 2544 5 2343 -61 2473 -33 67 -121 149 -196 184
l-52 25 -1638 -1 c-1546 0 -1641 -1 -1688 -18z"/>
</g>
</svg>
